HIERARCHY
ROOT Hips
{
	OFFSET 0.00000 0.00000 0.00000
	CHANNELS 6 Xposition Yposition Zposition Zrotation Yrotation Xrotation 
	JOINT LHipJoint
	{
		OFFSET 0 0 0
		CHANNELS 3 Zrotation Yrotation Xrotation
		JOINT LeftHip
		{
			OFFSET 1.44960 -1.75505 0.85172
			CHANNELS 3 Zrotation Yrotation Xrotation
			JOINT LeftKnee
			{
				OFFSET 2.40573 -6.60971 0.00000
				CHANNELS 3 Zrotation Yrotation Xrotation
				JOINT LeftAnkle
				{
					OFFSET 2.58773 -7.10974 0.00000
					CHANNELS 3 Zrotation Yrotation Xrotation
					JOINT LeftToe
					{
						OFFSET 0.18252 -0.50147 1.77316
						CHANNELS 3 Zrotation Yrotation Xrotation
						End Site
						{
							OFFSET 0.00000 -0.00000 0.92990
						}
					}
				}
			}
		}
	}
	JOINT RHipJoint
	{
		OFFSET 0 0 0
		CHANNELS 3 Zrotation Yrotation Xrotation
		JOINT RightHip
		{
			OFFSET -1.40744 -1.75505 0.85172
			CHANNELS 3 Zrotation Yrotation Xrotation
			JOINT RightKnee
			{
				OFFSET -2.43714 -6.69600 0.00000
				CHANNELS 3 Zrotation Yrotation Xrotation
				JOINT RightAnkle
				{
					OFFSET -2.51650 -6.91404 0.00000
					CHANNELS 3 Zrotation Yrotation Xrotation
					JOINT RightToe
					{
						OFFSET -0.25383 -0.69740 1.96384
						CHANNELS 3 Zrotation Yrotation Xrotation
						End Site
						{
							OFFSET -0.00000 -0.00000 1.04244
						}
					}
				}
			}
		}
	}
	JOINT lowerback
	{
		OFFSET 0 0 0
		CHANNELS 3 Zrotation Yrotation Xrotation
		JOINT Chest
		{
			OFFSET 0.00579 2.14458 -0.24367
			CHANNELS 3 Zrotation Yrotation Xrotation
			JOINT Chest2
			{
				OFFSET 0.05899 2.16316 -0.04515
				CHANNELS 3 Zrotation Yrotation Xrotation
				JOINT lowerneck
				{
					OFFSET 0 0 0
					CHANNELS 3 Zrotation Yrotation Xrotation
					JOINT Neck
					{
						OFFSET -0.01650 1.59577 0.24841
						CHANNELS 3 Zrotation Yrotation Xrotation
						JOINT Head
						{
							OFFSET -0.01016 1.63072 -0.17782
							CHANNELS 3 Zrotation Yrotation Xrotation
							End Site
							{
								OFFSET -0.00250 1.64111 -0.08717
							}
						}
					}
				}
				JOINT LeftCollar
				{
					OFFSET 0 0 0
					CHANNELS 3 Zrotation Yrotation Xrotation
					JOINT LeftShoulder
					{
						OFFSET 3.17745 0.95174 -0.45729
CHANNELS 3 Zrotation Xrotation Yrotation
						JOINT LeftElbow
						{
OFFSET 0 -4.934850 0.000000
CHANNELS 3 Zrotation Xrotation Yrotation
							JOINT LeftWrist
							{
OFFSET 0 -3.417190 -0.000000
CHANNELS 3 Zrotation Xrotation Yrotation
								JOINT lhand
								{
									OFFSET 0 0 0
CHANNELS 3 Zrotation Xrotation Yrotation
									JOINT LFingers
									{
OFFSET 0 -0.624100 -0.000000
CHANNELS 3 Zrotation Xrotation Yrotation
										End Site
										{
OFFSET 0 -0.503170 -0.000000
										}
									}
								}
								JOINT LThumb
								{
OFFSET 0 0.000000 0.000000
CHANNELS 3 Zrotation Xrotation Yrotation
									End Site
									{
OFFSET 0 -0.510850 0.510850
									}
								}
							}
						}
					}
				}
				JOINT RightCollar
				{
					OFFSET 0 0 0
					CHANNELS 3 Zrotation Yrotation Xrotation
					JOINT RightShoulder
					{
						OFFSET -2.87924 1.13038 -0.75204
CHANNELS 3 Zrotation Xrotation Yrotation
						JOINT RightElbow
						{
OFFSET 0 -5.220340 0.000000
CHANNELS 3 Zrotation Xrotation Yrotation
							JOINT RightWrist
							{
OFFSET 0 -3.418090 -0.000000
CHANNELS 3 Zrotation Xrotation Yrotation
								JOINT rhand
								{
									OFFSET 0 0 0
CHANNELS 3 Zrotation Xrotation Yrotation
									JOINT RFingers
									{
OFFSET 0 -0.775340 -0.000000
CHANNELS 3 Zrotation Xrotation Yrotation
										End Site
										{
OFFSET 0 -0.625100 -0.000000
										}
									}
								}
								JOINT RThumb
								{
OFFSET 0 0.000000 0.000000
CHANNELS 3 Zrotation Xrotation Yrotation
									End Site
									{
OFFSET 0 -0.634640 0.634640
									}
								}
							}
						}
					}
				}
			}
		}
	}
}
MOTION
Frames: 9
Frame Time: 0.008333333333333333
1.868400 17.575500 -35.536700 -2.583100 3.843200 4.111000 0.000000 0.000000 0.000000 -16.030800 -7.647000 -6.785100 1.568100 7.901600 22.415600 1.170400 -3.054800 -19.663100 0.028200 -1.083400 -2.978400 0.000000 0.000000 0.000000 19.914000 1.397100 -7.865600 -1.589900 -7.953700 22.573600 -1.145000 -4.702400 -22.418000 -0.061900 -1.605000 4.415100 -0.605600 -1.719000 2.851800 3.394600 -2.216400 -1.787300 3.969900 -1.051900 -3.283400 -2.453600 -2.755100 -16.202400 1.923800 -3.471800 12.645700 0.659400 -1.628400 6.583800 -0.000000 -0.000000 0.000000 -1.007100 6.691900 -13.846900 13.454000 -21.948800 2.620500 9.478400 15.071600 -40.998600 0.000000 0.000000 0.000000 -7.125000 0.000000 0.000000 -37.141300 67.902200 21.573300 -0.000000 -0.000000 0.000000 -4.986000 4.773700 13.350700 -14.149600 -22.948200 -2.886200 -18.038500 -18.962000 -15.356300 0.000000 0.000000 0.000000 7.125000 0.000000 -0.000000 6.453800 13.943100 4.739300
1.867761 17.582362 -35.531476 -2.757940 3.958815 4.116994 0.000000 0.000000 0.000000 -15.806348 -7.589091 -6.867319 1.576982 7.922873 22.480179 1.161243 -3.128031 -19.569943 0.071165 -1.687786 -4.644389 0.000000 0.000000 0.000000 20.134407 1.374860 -7.877583 -1.571784 -7.910502 22.442606 -1.101357 -5.100902 -22.281379 -0.019746 -0.870670 2.393177 -0.442547 -1.642834 2.785589 3.407400 -2.108042 -1.776775 3.882665 -1.001750 -3.248296 -2.394435 -2.725557 -16.212880 1.973133 -3.452479 12.603079 0.668029 -1.611870 6.571242 0.000000 0.000000 0.000000 -0.943614 6.686699 -14.366621 13.559795 -22.101704 2.660358 9.760657 14.881811 -41.179898 0.000000 0.000000 0.000000 -7.125000 0.000000 0.000000 -37.152008 68.128221 21.763491 0.000000 0.000000 0.000000 -4.918166 4.901795 13.106699 -14.046413 -22.800932 -2.846082 -17.950911 -18.972940 -15.532534 0.000000 0.000000 0.000000 7.125000 0.000000 0.000000 6.518366 13.769582 4.811487
1.869562 17.563286 -35.531546 -2.806100 4.073690 4.078795 0.000000 0.000000 0.000000 -15.741421 -7.692717 -7.071703 1.638530 8.068584 22.922679 1.210387 -3.456241 -19.938601 0.019126 -0.868072 -2.386128 0.000000 0.000000 0.000000 20.211938 1.144196 -7.739695 -1.528932 -7.806904 22.129148 -1.064784 -5.267535 -22.066343 -0.001711 -0.197502 0.542616 -0.372192 -1.605517 2.800712 3.399867 -2.056441 -1.720424 3.831456 -0.978566 -3.204734 -2.371550 -2.784924 -16.224519 1.981956 -3.534227 12.344902 0.659834 -1.650198 6.491635 0.000000 0.000000 0.000000 -0.985870 6.670836 -14.722953 13.806519 -22.457338 2.753828 9.997341 14.560768 -41.651069 0.000000 0.000000 0.000000 -7.125000 0.000000 0.000000 -37.715797 68.558917 22.484264 0.000000 0.000000 0.000000 -4.895914 4.943277 12.947345 -13.975433 -22.699552 -2.818622 -17.945835 -18.744278 -15.331334 0.000000 0.000000 0.000000 7.125000 0.000000 0.000000 6.515617 13.978505 4.780418
1.869973 17.565527 -35.525691 -2.704050 4.101981 4.184143 0.000000 0.000000 0.000000 -15.842774 -7.724808 -7.209507 1.656498 8.110676 23.050714 1.205129 -3.346093 -19.912267 0.039831 -1.285034 -3.533487 0.000000 0.000000 0.000000 20.103199 1.082441 -7.774658 -1.514557 -7.771894 22.023300 -1.065963 -5.208449 -22.040472 -0.009795 0.500418 -1.375579 -0.470759 -1.570790 2.677282 3.373352 -2.016234 -1.739552 3.853456 -0.957187 -3.155146 -2.681203 -2.770753 -16.301449 2.367812 -3.504942 12.428212 0.835566 -1.616747 6.543683 0.000000 0.000000 0.000000 -1.002563 6.705021 -14.914762 13.978280 -22.703278 2.819912 9.691368 14.150821 -41.534678 0.000000 0.000000 0.000000 -7.125000 0.000000 0.000000 -37.826067 68.375580 22.404330 0.000000 0.000000 0.000000 -4.970500 4.973218 12.990482 -13.785407 -22.427082 -2.745688 -17.383783 -18.940045 -15.947772 0.000000 0.000000 0.000000 7.125000 0.000000 0.000000 6.911491 13.398264 5.161397
1.868125 17.561230 -35.526806 -2.758839 4.212613 4.224613 0.000000 0.000000 0.000000 -15.753131 -7.804735 -7.293449 1.660394 8.119680 23.078151 1.205299 -3.466033 -19.893969 0.028636 -1.031760 -2.836765 0.000000 0.000000 0.000000 20.185322 1.026429 -7.767360 -1.509875 -7.760276 21.988331 -1.070728 -5.203098 -22.078797 -0.021599 0.893511 -2.456347 -0.467054 -1.530765 2.614237 3.413752 -1.963923 -1.670313 3.886718 -0.932659 -3.050426 -2.569658 -2.830072 -16.506310 2.227229 -3.580974 12.333449 0.762482 -1.658781 6.544720 0.000000 0.000000 0.000000 -1.099304 6.568706 -14.979259 14.306881 -23.171693 2.947787 8.545636 13.099386 -41.464501 0.000000 0.000000 0.000000 -7.125000 0.000000 0.000000 -38.882241 67.964776 22.754067 0.000000 0.000000 0.000000 -4.940238 4.919902 12.756372 -13.787606 -22.430212 -2.746558 -16.261194 -18.376881 -15.896622 0.000000 0.000000 0.000000 7.125000 0.000000 0.000000 7.663472 13.563055 5.705001
1.856351 17.570427 -35.517306 -3.078362 4.144101 4.061186 0.000000 0.000000 0.000000 -15.353740 -7.691717 -7.262430 1.694359 8.198174 23.317607 1.238816 -3.577925 -20.160697 0.013506 -0.749652 -2.060316 0.000000 0.000000 0.000000 20.638022 1.596840 -7.292758 -1.484586 -7.698112 21.800741 -1.059121 -5.661954 -22.266408 -0.021452 0.945641 -2.599164 -0.301499 -1.412853 2.682744 3.504061 -1.798056 -1.581098 3.879229 -0.853516 -3.010825 -2.793045 -2.935210 -16.601982 2.573312 -3.728025 12.495790 0.892210 -1.708806 6.628129 0.000000 0.000000 0.000000 -1.073566 6.512927 -15.492556 14.543099 -23.505740 3.041340 8.249735 12.763072 -42.997746 0.000000 0.000000 0.000000 -7.125000 0.000000 0.000000 -41.933888 68.986608 25.692795 0.000000 0.000000 0.000000 -4.876986 4.943853 12.466514 -13.741699 -22.364222 -2.729048 -17.697768 -18.428230 -15.249262 0.000000 0.000000 0.000000 7.125000 0.000000 0.000000 6.680631 14.088062 4.887506
1.865599 17.559350 -35.520797 -2.847184 4.231513 4.175729 0.000000 0.000000 0.000000 -15.651848 -7.872837 -7.219743 1.663833 8.127584 23.102303 1.219518 -3.485584 -20.012576 0.013826 -0.756923 -2.080164 0.000000 0.000000 0.000000 20.316444 1.179942 -7.618237 -1.501189 -7.738916 21.923904 -1.057770 -5.431930 -22.113913 -0.027160 0.943945 -2.595522 -0.448456 -1.356051 2.610060 3.471541 -1.729788 -1.582747 3.922688 -0.817188 -2.972879 -2.878830 -3.007273 -16.768974 2.437076 -3.779440 12.545567 0.854351 -1.748057 6.672398 0.000000 0.000000 0.000000 -1.203264 6.375234 -16.002212 14.642795 -23.645937 3.081319 8.937597 12.703711 -41.964545 0.000000 0.000000 0.000000 -7.125000 0.000000 0.000000 -39.353886 68.457328 23.485979 0.000000 0.000000 0.000000 -5.020059 4.936317 12.422029 -13.644867 -22.224767 -2.692346 -17.159889 -18.499816 -15.533037 0.000000 0.000000 0.000000 7.125000 0.000000 0.000000 7.050119 13.848631 5.199848
1.860302 17.571414 -35.520403 -3.035356 4.164676 4.136924 0.000000 0.000000 0.000000 -15.433766 -7.871994 -7.197558 1.668228 8.137832 23.133447 1.223916 -3.419319 -20.060727 0.012766 -0.728500 -2.001981 0.000000 0.000000 0.000000 20.555970 1.608654 -7.408879 -1.497176 -7.729177 21.894353 -1.077535 -5.549365 -22.353873 -0.011436 0.402936 -1.108135 -0.356527 -1.256011 2.715961 3.537877 -1.589141 -1.576621 3.936176 -0.747311 -3.036913 -2.784861 -3.043229 -16.959403 2.293743 -3.824923 12.685839 0.784931 -1.775915 6.746037 0.000000 0.000000 0.000000 -1.241566 6.347952 -16.484854 14.846141 -23.931233 3.163275 9.361756 12.566866 -41.793959 0.000000 0.000000 0.000000 -7.125000 0.000000 0.000000 -38.618304 68.465888 23.002272 0.000000 0.000000 0.000000 -5.039270 5.091937 12.459141 -13.665323 -22.254329 -2.700111 -16.600249 -18.475205 -15.782267 0.000000 0.000000 0.000000 7.125000 0.000000 0.000000 7.433271 13.647152 5.517194
1.857861 17.572880 -35.520962 -3.165069 4.205921 4.066106 0.000000 0.000000 0.000000 -15.281509 -7.906391 -7.221204 1.692375 8.193473 23.303255 1.235161 -3.474800 -20.146881 0.010047 -0.643910 -1.769502 0.000000 0.000000 0.000000 20.720332 1.637757 -7.296711 -1.476761 -7.678640 21.742185 -1.053262 -5.706630 -22.244963 -0.001041 0.116831 -0.320936 -0.262093 -1.230884 2.792918 3.569056 -1.550738 -1.528177 3.914552 -0.730144 -3.034602 -2.682606 -3.027412 -16.837558 2.215795 -3.811881 12.380785 0.747903 -1.773551 6.622984 0.000000 0.000000 0.000000 -1.279273 6.234724 -16.743517 15.031578 -24.190046 3.238863 9.252075 12.317409 -42.115608 0.000000 0.000000 0.000000 -7.125000 0.000000 0.000000 -39.311709 68.668105 23.638125 0.000000 0.000000 0.000000 -5.060462 5.100642 12.625084 -13.634377 -22.209574 -2.688318 -17.921908 -18.712918 -15.193346 0.000000 0.000000 0.000000 7.125000 0.000000 0.000000 6.527788 14.123487 4.768945
